<svg xmlns="http://www.w3.org/2000/svg" viewBox="0 0 1200 300" width="1200" height="300" role="img" aria-label="cannex-logistics identity object">
<title>cannex-logistics identity object</title>
<rect width="1200" height="300" fill="#1b1712"/>
<defs><linearGradient id="gft" x1="0" y1="0" x2="1" y2="1"><stop offset="0%" stop-color="#f4a261"/><stop offset="100%" stop-color="#e76f51"/></linearGradient></defs><rect x="168.00" y="148.00" width="832.00" height="3.00" rx="2.00" fill="rgba(253,246,233,0.160)" opacity="1.00"/><polygon points="-19.05,37.00 19.05,59.00 19.05,15.00 -19.05,-7.00" fill="#506748" opacity="0.95"/><polygon points="-57.16,59.00 -19.05,81.00 -19.05,37.00 -57.16,15.00" fill="#b4573f" opacity="0.95"/><polygon points="-19.05,-7.00 19.05,15.00 -19.05,37.00 -57.16,15.00" fill="#f4a261" opacity="0.95"/><polygon points="12.12,79.00 50.23,101.00 50.23,57.00 12.12,35.00" fill="#506748" opacity="0.95"/><polygon points="-25.98,101.00 12.12,123.00 12.12,79.00 -25.98,57.00" fill="#b4573f" opacity="0.95"/><polygon points="12.12,35.00 50.23,57.00 12.12,79.00 -25.98,57.00" fill="#e76f51" opacity="0.95"/><polygon points="43.30,121.00 81.41,143.00 81.41,99.00 43.30,77.00" fill="#506748" opacity="0.95"/><polygon points="5.20,143.00 43.30,165.00 43.30,121.00 5.20,99.00" fill="#b4573f" opacity="0.95"/><polygon points="43.30,77.00 81.41,99.00 43.30,121.00 5.20,99.00" fill="#8ab17d" opacity="0.95"/><polygon points="74.48,163.00 112.58,185.00 112.58,141.00 74.48,119.00" fill="#506748" opacity="0.95"/><polygon points="36.37,185.00 74.48,207.00 74.48,163.00 36.37,141.00" fill="#b4573f" opacity="0.95"/><polygon points="74.48,119.00 112.58,141.00 74.48,163.00 36.37,141.00" fill="#f4a261" opacity="0.95"/><g><circle cx="168.00" cy="150.00" r="104.00" fill="none" stroke="rgba(244,162,97,0.350)" stroke-width="1.60" opacity="1.00"/><animate attributeName="opacity" values="0.25;1.0;0.25" dur="15.5s" begin="0s" repeatCount="indefinite" /></g><circle cx="168" cy="150" r="3" fill="rgba(231,111,81,0.900)"><animate attributeName="opacity" values="0.35;0.95;0.35" dur="15.5s" begin="0s" repeatCount="indefinite" /></circle><text x="368" y="144" font-family="ui-monospace,Menlo,monospace" font-size="19" fill="rgba(253,246,233,0.900)">cannex-logistics</text><text x="368" y="172" font-family="ui-monospace,Menlo,monospace" font-size="14" fill="rgba(253,246,233,0.500)">DUNG30N5 &#215; NOAERTH &#183; Web Application</text>
</svg>